<svg width="103" height="103" viewBox="0 0 103 103" fill="none" xmlns="http://www.w3.org/2000/svg">
<path d="M56.072 14.384C56.312 19.568 55.784 24.392 54.488 28.856C53.24 33.32 51.464 37.184 49.16 40.448C46.856 43.712 44.144 46.28 41.024 48.152C37.904 49.976 34.64 50.84 31.232 50.744C28.544 50.696 26.12 50.12 23.96 49.016C21.848 47.864 20.024 46.352 18.488 44.48C17 42.608 15.8 40.472 14.888 38.072C14.024 35.672 13.496 33.176 13.304 30.584C13.112 25.88 13.856 21.656 15.536 17.912C17.264 14.12 19.616 10.928 22.592 8.33599C25.616 5.69599 29.12 3.67999 33.104 2.28799C37.136 0.84799 41.36 0.127991 45.776 0.127991C48.848 0.127991 51.8 0.439991 54.632 1.06399C57.656 1.68799 60.656 2.67199 63.632 4.01599C66.608 5.35999 69.344 7.01599 71.84 8.98399C73.856 7.44799 76.016 6.24799 78.32 5.38399C80.672 4.47199 83.336 3.89599 86.312 3.65599C88.088 3.55999 89.792 3.75199 91.424 4.23199C93.104 4.66399 94.592 5.31199 95.888 6.17599C97.232 7.03999 98.336 8.07199 99.2 9.27199C100.064 10.472 100.616 11.792 100.856 13.232C101.048 14.432 100.976 15.512 100.64 16.472C100.352 17.432 99.896 18.248 99.272 18.92C98.696 19.592 98 20.12 97.184 20.504C96.416 20.84 95.624 21.008 94.808 21.008C92.648 21.008 90.848 19.688 89.408 17.048C90.128 17.048 90.704 16.928 91.136 16.688C91.568 16.448 91.904 16.16 92.144 15.824C92.384 15.44 92.528 15.056 92.576 14.672C92.672 14.24 92.696 13.88 92.648 13.592C92.456 12.44 91.88 11.384 90.92 10.424C90.008 9.41599 88.616 8.86399 86.744 8.76799C84.632 8.71999 82.616 9.05599 80.696 9.77599C78.824 10.448 77.12 11.36 75.584 12.512H75.8C78.104 14.912 79.976 17.528 81.416 20.36C82.904 23.192 83.888 26.264 84.368 29.576C84.704 32.024 84.68 34.352 84.296 36.56C83.96 38.72 83.336 40.736 82.424 42.608C81.512 44.48 80.36 46.16 78.968 47.648C77.624 49.136 76.16 50.408 74.576 51.464H74.864C76.256 53.48 77.36 55.64 78.176 57.944C79.04 60.2 79.664 62.6 80.048 65.144C80.24 66.392 80.36 67.64 80.408 68.888C80.456 70.136 80.456 71.36 80.408 72.56C80.264 75.68 79.76 78.944 78.896 82.352C78.032 85.712 76.832 88.784 75.296 91.568C73.76 94.4 71.912 96.752 69.752 98.624C67.592 100.496 65.144 101.48 62.408 101.576C60.872 101.624 59.48 101.384 58.232 100.856C57.032 100.328 55.976 99.56 55.064 98.552C54.152 97.592 53.408 96.416 52.832 95.024C52.304 93.68 51.92 92.168 51.68 90.488C51.248 87.752 51.32 84.824 51.896 81.704C52.52 78.584 53.6 75.704 55.136 73.064C56.72 70.376 58.784 68.12 61.328 66.296C63.872 64.472 66.896 63.488 70.4 63.344H70.688C69.872 63.728 68.96 64.544 67.952 65.792C66.992 66.992 66.104 68.36 65.288 69.896C64.52 71.432 63.896 73.016 63.416 74.648C62.984 76.232 62.864 77.6 63.056 78.752C63.2 80 63.8 80.624 64.856 80.624C65.288 80.624 65.912 80.264 66.728 79.544C67.544 78.824 68.408 77.84 69.32 76.592C70.232 75.344 71.072 73.856 71.84 72.128C72.608 70.4 73.16 68.528 73.496 66.512C73.88 63.68 73.928 61.184 73.64 59.024C73.496 58.16 73.208 57.176 72.776 56.072C72.392 54.92 72.032 53.936 71.696 53.12C70.592 53.552 69.488 53.888 68.384 54.128C67.28 54.368 66.176 54.488 65.072 54.488C62.816 54.488 61.112 53.984 59.96 52.976C58.808 51.92 58.136 50.768 57.944 49.52C57.848 48.752 57.896 48.008 58.088 47.288C58.328 46.568 58.736 45.944 59.312 45.416C59.888 44.888 60.608 44.504 61.472 44.264C62.384 44.024 63.44 44.024 64.64 44.264C65.84 44.504 66.944 44.888 67.952 45.416C69.008 45.944 69.992 46.544 70.904 47.216C71.816 46.208 72.656 44.984 73.424 43.544C74.192 42.056 74.816 40.52 75.296 38.936C75.824 37.352 76.208 35.768 76.448 34.184C76.688 32.552 76.784 31.088 76.736 29.792C76.4 27.104 75.824 24.56 75.008 22.16C74.192 19.76 73.184 17.768 71.984 16.184C70.304 18.2 68.744 20.6 67.304 23.384C65.912 26.12 64.568 29.096 63.272 32.312C61.976 35.48 60.752 38.84 59.6 42.392C58.448 45.896 57.344 49.448 56.288 53.048C55.04 57.128 53.768 61.184 52.472 65.216C51.176 69.248 49.76 73.088 48.224 76.736C46.736 80.384 45.08 83.768 43.256 86.888C41.432 90.008 39.368 92.696 37.064 94.952C34.76 97.208 32.144 98.936 29.216 100.136C26.336 101.384 23.096 101.936 19.496 101.792C17.48 101.744 15.44 101.288 13.376 100.424C11.312 99.608 9.41603 98.408 7.68803 96.824C5.96003 95.24 4.47203 93.296 3.22403 90.992C1.97603 88.688 1.18403 86.024 0.84803 83C0.60803 81.224 0.60803 79.328 0.84803 77.312C1.08803 75.296 1.61603 73.496 2.43203 71.912C3.00803 70.856 3.80003 70.016 4.80803 69.392C5.81603 68.72 6.99203 68.384 8.33603 68.384C9.00803 68.384 9.77603 68.528 10.64 68.816C11.504 69.104 12.344 69.512 13.16 70.04C13.544 68.936 14.216 67.928 15.176 67.016C16.136 66.104 17.384 65.648 18.92 65.648C20.264 65.648 21.92 66.344 23.888 67.736C23.168 68.984 22.688 70.184 22.448 71.336C22.208 72.44 22.16 73.472 22.304 74.432C22.544 75.824 23.072 77.024 23.888 78.032C24.752 78.992 25.808 79.472 27.056 79.472C27.68 79.472 28.424 79.28 29.288 78.896C30.152 78.464 30.992 77.888 31.808 77.168C33.68 75.392 35.432 73.256 37.064 70.76C38.744 68.264 40.328 65.576 41.816 62.696C43.352 59.816 44.792 56.84 46.136 53.768C47.48 50.696 48.776 47.672 50.024 44.696C51.224 41.864 52.496 38.96 53.84 35.984C55.232 32.96 56.672 30.008 58.16 27.128C59.696 24.248 61.304 21.512 62.984 18.92C64.712 16.328 66.512 14.024 68.384 12.008C65.84 10.04 63.032 8.57599 59.96 7.61599C56.888 6.65599 53.984 6.17599 51.248 6.17599C50.768 6.17599 50.288 6.17599 49.808 6.17599C49.376 6.17599 48.944 6.19999 48.512 6.24798C45.872 6.39199 43.448 7.23199 41.24 8.76799C39.08 10.256 37.256 12.104 35.768 14.312C34.28 16.472 33.176 18.824 32.456 21.368C31.784 23.912 31.592 26.264 31.88 28.424C32.168 30.344 32.912 31.976 34.112 33.32C35.36 34.616 37.208 35.312 39.656 35.408C41.48 35.456 43.16 34.952 44.696 33.896C46.28 32.84 47.72 31.376 49.016 29.504C50.36 27.584 51.608 25.328 52.76 22.736C53.912 20.144 55.016 17.36 56.072 14.384ZM62.696 49.592C62.792 49.832 63.008 50.072 63.344 50.312C63.728 50.552 64.28 50.672 65 50.672C65.528 50.576 66.08 50.456 66.656 50.312C67.28 50.12 67.88 49.808 68.456 49.376C67.88 48.992 67.256 48.704 66.584 48.512C65.912 48.32 65.312 48.2 64.784 48.152C64.112 48.056 63.584 48.176 63.2 48.512C62.816 48.848 62.648 49.208 62.696 49.592Z" fill="black"/>
</svg>
